<svg xmlns="http://www.w3.org/2000/svg" viewBox="0 0 600 600"><defs><style>.cls-1{fill:#1a1a1a;}.cls-2{fill:#fefefe;}</style></defs><title>Ativo 3</title><g id="Camada_2" data-name="Camada 2"><g id="Camada_3" data-name="Camada 3"><rect class="cls-1" width="600" height="600"/><polygon class="cls-2" points="305.25 122.82 300.44 134.41 277.2 190.43 277.2 190.43 272.39 202.03 226.78 312 273.25 312 295.63 258.05 300.44 246.46 323.68 190.43 328.49 178.84 333.3 190.43 383.72 312 386.21 318 398.24 347 400.73 353 412.76 382 415.25 388 475.58 533.45 518.94 525.94 353.72 127.63 351.73 122.82 344.35 105.03 328.49 66.8 328.49 66.8 305.25 122.82"/><polygon class="cls-2" points="405.63 388 403.14 382 391.11 353 388.62 347 376.59 318 374.11 312 328.49 202.03 305.25 258.05 305.25 258.05 330.12 318 342.15 347 344.63 353 335.02 353 265.86 353 256.25 353 209.77 353 197.74 382 195.25 388 134.28 535 134.28 535 180.75 535 244.22 382 356.66 382 420.13 535 466.61 535 466.61 535 405.63 388"/><polygon class="cls-2" points="185.63 387.97 188.12 381.97 200.14 353 202.62 347 212.26 347 258.74 347 268.35 347 332.53 347 320.5 318 280.37 318 270.76 318 224.32 318 214.71 318 217.2 312 267.59 190.54 272.39 178.96 272.39 178.96 295.61 122.98 300.41 111.4 318.83 67 272.32 67 256.48 105.21 249.1 122.98 247.11 127.79 153.69 353 147.76 367.29 82.01 525.81 125.34 533.31 185.63 387.97"/></g></g></svg>